<?xml version="1.0" encoding="UTF-8" standalone="no"?><!DOCTYPE svg PUBLIC "-//W3C//DTD SVG 1.1//EN" "http://www.w3.org/Graphics/SVG/1.1/DTD/svg11.dtd"><svg width="100%" height="100%" viewBox="0 0 1116 2084" version="1.1" xmlns="http://www.w3.org/2000/svg" xmlns:xlink="http://www.w3.org/1999/xlink" xml:space="preserve" xmlns:serif="http://www.serif.com/" style="fill-rule:evenodd;clip-rule:evenodd;stroke-linejoin:round;stroke-miterlimit:2;"><g><clipPath id="_clip1"><path d="M0,1959.921c0,0 632.099,313.675 1115.71,-59.14c-126.114,-338.497 -347.559,-1315.008 -478.332,-1746.274c-27.878,-91.953 -32.431,-101.12 -43.839,-126.369c-63.825,-141.254 -130.967,274.123 -240.162,692.256c-39.101,149.872 -353.379,1239.527 -353.379,1239.527Z"/></clipPath><g clip-path="url(#_clip1)"><path d="M0,1959.921c0,0 632.099,313.675 1115.71,-59.14c-126.114,-338.497 -347.559,-1315.008 -478.332,-1746.274c-27.878,-91.953 -32.431,-101.12 -43.839,-126.369c-63.825,-141.254 -130.967,274.123 -240.162,692.256c-39.101,149.872 -353.379,1239.527 -353.379,1239.527" style="fill:url(#_Linear2);fill-rule:nonzero;"/></g></g><g><clipPath id="_clip3"><path d="M127.485,1890.579c0,0 540.778,317.306 988.225,10.203c-11.979,-53.444 -42.502,-139.246 -63.232,-219.175c-110.159,-424.645 -309.527,-1141.629 -406.676,-1497.573c-105.296,-385.397 -139.357,65.245 -262.189,544.769c-37.319,145.813 -256.128,1161.777 -256.128,1161.777Z"/></clipPath><g clip-path="url(#_clip3)"><path d="M127.485,1890.579c0,0 540.778,317.306 988.225,10.203c-11.979,-53.444 -42.502,-139.246 -63.232,-219.175c-110.159,-424.645 -309.527,-1141.629 -406.676,-1497.573c-105.296,-385.397 -139.357,65.245 -262.189,544.769c-37.319,145.813 -256.128,1161.777 -256.128,1161.777" style="fill:url(#_Linear4);fill-rule:nonzero;"/></g></g><path d="M274.037,1615.652l56.205,-96.971l52.52,102.154l-60.094,131.76l-48.631,-136.943m458.973,-367.01l56.205,-96.976l52.524,102.162l-60.124,131.76l-48.602,-136.947m-314.232,-387.274l56.205,-96.955l52.491,102.166l-60.094,131.727l-48.602,-136.939" style="fill:#f9a72b;fill-rule:nonzero;"/><path d="M274.037,1615.652l56.289,-113.559l52.437,118.742l-60.007,97.154l-48.719,-102.337m458.973,-367.01l56.318,-113.555l52.408,118.742l-60.003,97.15l-48.719,-102.337m-314.232,-387.274l56.289,-113.542l52.408,118.754l-60.007,97.121l-48.69,-102.333" style="fill:#fff200;fill-rule:nonzero;"/><path d="M330.067,1881.248c0,0 402.597,67.149 667.62,-102.503c-33.233,102.503 -330.387,219.294 -667.62,102.503" style="fill:#24265d;fill-rule:nonzero;"/><defs><linearGradient id="_Linear2" x1="0" y1="0" x2="1" y2="0" gradientUnits="userSpaceOnUse" gradientTransform="matrix(-1702.523854,903.94589,903.94589,1702.523854,-54812.320793,-105903.114059)"><stop offset="0" style="stop-color:#3871c1;stop-opacity:1"/><stop offset="0.52" style="stop-color:#2c3792;stop-opacity:1"/><stop offset="0.87" style="stop-color:#24265d;stop-opacity:1"/><stop offset="1" style="stop-color:#252761;stop-opacity:1"/></linearGradient><linearGradient id="_Linear4" x1="0" y1="0" x2="1" y2="0" gradientUnits="userSpaceOnUse" gradientTransform="matrix(-993.552505,259.189944,259.189944,993.552505,-38078.644758,-148284.161405)"><stop offset="0" style="stop-color:#3871c1;stop-opacity:1"/><stop offset="0.52" style="stop-color:#2c3792;stop-opacity:1"/><stop offset="0.87" style="stop-color:#24265d;stop-opacity:1"/><stop offset="1" style="stop-color:#252761;stop-opacity:1"/></linearGradient></defs></svg>