<svg width="100%" height="100%" viewBox="0 0 800 800" version="1.1" xmlns="http://www.w3.org/2000/svg" xmlns:xlink="http://www.w3.org/1999/xlink" xml:space="preserve" xmlns:serif="http://www.serif.com/" style="fill-rule:evenodd;clip-rule:evenodd;stroke-linejoin:round;stroke-miterlimit:2;"><path d="M523.251,140.571l-123.167,71.08l123.167,71.122l0,-142.203Z" style="fill:#4695eb;fill-rule:nonzero;"/><path d="M276.917,140.571l0,142.203l123.167,-71.122l-123.167,-71.08Z" style="fill:#ff004a;fill-rule:nonzero;"/><path d="M523.251,282.774l-123.167,-71.122l-123.167,71.122l123.167,71.122l123.167,-71.122Z" style="fill:var(--foreground);fill-rule:nonzero;"/><path d="M147.056,365.485l123.167,71.122l0,-142.203l-123.167,71.08Z" style="fill:#4695eb;fill-rule:nonzero;"/><path d="M270.223,578.81l123.167,-71.08l-123.167,-71.122l0,142.203Z" style="fill:#ff004a;fill-rule:nonzero;"/><path d="M270.223,294.404l0,142.203l123.167,71.122l0,-142.245l-123.167,-71.08Z" style="fill:var(--foreground);fill-rule:nonzero;"/><path d="M529.945,578.81l0,-142.203l-123.167,71.122l123.167,71.08Z" style="fill:#4695eb;fill-rule:nonzero;"/><path d="M653.112,365.485l-123.167,-71.08l0,142.203l123.167,-71.122Z" style="fill:#ff004a;fill-rule:nonzero;"/><path d="M406.778,507.729l123.167,-71.122l0,-142.203l-123.167,71.08l0,142.245Z" style="fill:var(--foreground);fill-rule:nonzero;"/><path d="M667.378,0l-534.588,0c-72.722,0.205 -132.5,59.983 -132.706,132.706l0,534.588c0.205,72.722 59.983,132.5 132.706,132.706l366.112,0l-98.818,-240.017l-71.666,151.532l-195.628,0c-24.139,-0.314 -43.908,-20.082 -44.221,-44.221l0,-534.588c0.314,-24.139 20.082,-43.908 44.221,-44.221l534.588,0c24.139,0.314 43.908,20.082 44.221,44.221l0,534.588c-0.314,24.139 -20.082,43.908 -44.221,44.221l-116.013,0l36.44,88.484l79.49,0c72.722,-0.205 132.5,-59.983 132.706,-132.706l0,-534.588c-0.205,-72.691 -59.931,-132.455 -132.622,-132.706Z" style="fill:#4695eb;fill-rule:nonzero;"/></svg>
